<svg xmlns="http://www.w3.org/2000/svg" viewBox="0 0 1899.82 1117.38"><defs><style>.cls-1{fill:#a0a0a0;}</style></defs><title>FlairFooterLogoSVG_1</title><g id="Layer_2" data-name="Layer 2"><g id="Layer_1-2" data-name="Layer 1"><path class="cls-1" d="M1792.33,90,1650.92,385.38H740.49L881.9,90h910.44m47.05-90H863.23a60.36,60.36,0,0,0-54.44,34.29L639,389c-19.18,40.06,10,86.42,54.44,86.42h976.16a60.36,60.36,0,0,0,54.44-34.3L1893.83,86.42C1913,46.36,1883.81,0,1839.39,0Z"/><path class="cls-1" d="M1159.33,732l-141.41,295.38H107.49L248.9,732h910.44m47.05-90H230.23a60.36,60.36,0,0,0-54.44,34.3L6,1031c-19.18,40.06,10,86.42,54.44,86.42h976.16a60.36,60.36,0,0,0,54.44-34.29l169.79-354.66c19.18-40.06-10-86.42-54.44-86.42Z"/></g></g></svg>