<svg xmlns="http://www.w3.org/2000/svg" viewBox="0 0 807 807"><defs><style>.cls-1{fill:#d8d8d8;}.cls-2{fill:#a0a0a0;}.cls-3,.cls-4{fill:none;stroke:#a0a0a0;stroke-miterlimit:10;stroke-width:12px;}.cls-4{stroke-dasharray:22.23 22.23;}</style></defs><title>MarginIcon</title><g id="Layer_2" data-name="Layer 2"><g id="Layer_1-2" data-name="Layer 1"><circle class="cls-1" cx="403.5" cy="403.5" r="403.5"/><path class="cls-2" d="M635,295.32V541.68H239.36V295.32H635m25-25H214.36V566.68H660V270.32Z"/><line class="cls-3" x1="438" y1="152.65" x2="438" y2="165.15"/><line class="cls-4" x1="438" y1="187.38" x2="438" y2="220.73"/><line class="cls-3" x1="438" y1="231.85" x2="438" y2="244.35"/><polygon class="cls-2" points="420.23 166.14 438 158.58 455.77 166.14 438 124 420.23 166.14"/><polygon class="cls-2" points="420.23 230.86 438 238.42 455.77 230.86 438 273 420.23 230.86"/><line class="cls-3" x1="185.35" y1="418" x2="172.85" y2="418"/><line class="cls-4" x1="150.62" y1="418" x2="117.27" y2="418"/><line class="cls-3" x1="106.15" y1="418" x2="93.65" y2="418"/><polygon class="cls-2" points="171.86 400.23 179.42 418 171.86 435.77 214 418 171.86 400.23"/><polygon class="cls-2" points="107.14 400.23 99.58 418 107.14 435.77 65 418 107.14 400.23"/></g></g></svg>