<svg xmlns="http://www.w3.org/2000/svg" viewBox="0 0 807 807"><defs><style>.cls-1{fill:#d8d8d8;}.cls-2{fill:#a0a0a0;}.cls-3,.cls-4{fill:none;stroke:#a0a0a0;stroke-miterlimit:10;stroke-width:12px;}.cls-4{stroke-dasharray:22.23 22.23;}</style></defs><title>PaddingIcon</title><g id="Layer_2" data-name="Layer 2"><g id="Layer_1-2" data-name="Layer 1"><circle class="cls-1" cx="403.5" cy="403.5" r="403.5"/><path class="cls-2" d="M601,280.32V526.68H205.36V280.32H601m25-25H180.36V551.68H626V255.32Z"/><line class="cls-3" x1="369" y1="308.65" x2="369" y2="321.15"/><line class="cls-4" x1="369" y1="343.38" x2="369" y2="376.73"/><line class="cls-3" x1="369" y1="387.85" x2="369" y2="400.35"/><polygon class="cls-2" points="351.23 322.14 369 314.58 386.77 322.14 369 280 351.23 322.14"/><polygon class="cls-2" points="351.23 386.86 369 394.42 386.77 386.86 369 429 351.23 386.86"/><line class="cls-3" x1="323.35" y1="429" x2="310.85" y2="429"/><line class="cls-4" x1="288.62" y1="429" x2="255.27" y2="429"/><line class="cls-3" x1="244.15" y1="429" x2="231.65" y2="429"/><polygon class="cls-2" points="309.86 411.23 317.42 429 309.86 446.77 352 429 309.86 411.23"/><polygon class="cls-2" points="245.14 411.23 237.58 429 245.14 446.77 203 429 245.14 411.23"/></g></g></svg>