<svg xmlns="http://www.w3.org/2000/svg" viewBox="0 0 807 807"><defs><style>.cls-1{fill:#d8d8d8;}.cls-2,.cls-6{fill:#a0a0a0;}.cls-3,.cls-4,.cls-5{fill:none;stroke:#a0a0a0;stroke-miterlimit:10;stroke-width:12px;}.cls-4{stroke-dasharray:24.67 24.67;}.cls-5{stroke-dasharray:24.53 24.53;}.cls-6{font-size:167.7px;font-family:Arial-BoldMT, Arial;font-weight:700;}</style></defs><title>WidthHeightIcon_1</title><g id="Layer_2" data-name="Layer 2"><g id="Layer_1-2" data-name="Layer 1"><circle class="cls-1" cx="403.5" cy="403.5" r="403.5"/><path class="cls-2" d="M629,311.32V557.68H233.36V311.32H629m25-25H208.36V582.68H654V286.32Z"/><line class="cls-3" x1="258.15" y1="216" x2="270.65" y2="216"/><line class="cls-4" x1="295.32" y1="216" x2="579.02" y2="216"/><line class="cls-3" x1="591.35" y1="216" x2="603.85" y2="216"/><polygon class="cls-2" points="281.74 247.11 268.52 216 281.74 184.89 208 216 281.74 247.11"/><polygon class="cls-2" points="580.26 247.11 593.48 216 580.26 184.89 654 216 580.26 247.11"/><line class="cls-3" x1="138" y1="336.15" x2="138" y2="348.65"/><line class="cls-5" x1="138" y1="373.18" x2="138" y2="508.09"/><line class="cls-3" x1="138" y1="520.35" x2="138" y2="532.85"/><polygon class="cls-2" points="106.89 359.74 138 346.52 169.11 359.74 138 286 106.89 359.74"/><polygon class="cls-2" points="106.89 509.26 138 522.48 169.11 509.26 138 583 106.89 509.26"/><text class="cls-6" transform="translate(251.08 454.87) scale(1.09 1)">T</text><line class="cls-3" x1="388" y1="364.65" x2="388" y2="377.15"/><line class="cls-3" x1="388" y1="413.85" x2="388" y2="426.35"/><polygon class="cls-2" points="370.23 378.14 388 370.58 405.77 378.14 388 336 370.23 378.14"/><polygon class="cls-2" points="370.23 412.86 388 420.42 405.77 412.86 388 455 370.23 412.86"/></g></g></svg>