<svg xmlns="http://www.w3.org/2000/svg" viewBox="0 0 1899.82 1117.38"><defs><style>.cls-1{fill:#fff;}</style></defs><title>FlairLogoSVG</title><g id="Layer_2" data-name="Layer 2"><g id="Layer_1-2" data-name="Layer 1"><path class="cls-1" d="M1776.46,100,1644.62,375.38H756.36L888.2,100h888.26M1839.39,0H863.23a60.36,60.36,0,0,0-54.44,34.29L639,389c-19.18,40.06,10,86.42,54.44,86.42h976.16A60.36,60.36,0,0,0,1724,441.08L1893.83,86.42C1913,46.36,1883.81,0,1839.39,0Z"/><path class="cls-1" d="M1143.46,742l-131.84,275.38H123.36L255.2,742h888.26m62.93-100H230.23a60.36,60.36,0,0,0-54.44,34.29L6,1031c-19.18,40.06,10,86.42,54.44,86.42h976.16a60.36,60.36,0,0,0,54.44-34.3l169.79-354.66c19.18-40.06-10-86.42-54.44-86.42Z"/></g></g></svg>